<mxfile host="app.diagrams.net" modified="2022-02-02T14:39:50.192Z" agent="5.0 (Windows NT 10.0; Win64; x64) AppleWebKit/537.36 (KHTML, like Gecko) Chrome/97.0.4692.99 Safari/537.36 Edg/97.0.1072.76" etag="nA5G2SJ5EHz-luazCHez" version="16.5.2" type="github" pages="2">
  <diagram name="Page-1" id="2cc2dc42-3aac-f2a9-1cec-7a8b7cbee084">
    <mxGraphModel dx="2370" dy="1257" grid="1" gridSize="10" guides="1" tooltips="1" connect="1" arrows="1" fold="1" page="1" pageScale="1" pageWidth="1600" pageHeight="900" background="none" math="0" shadow="0">
      <root>
        <mxCell id="0" />
        <mxCell id="1" parent="0" />
        <mxCell id="7026571954dc6520-1" value="" style="strokeWidth=1;shadow=0;dashed=0;align=center;html=1;shape=mxgraph.mockup.containers.browserWindow;rSize=0;strokeColor=#666666;mainText=,;recursiveResize=0;rounded=0;labelBackgroundColor=none;fontFamily=Verdana;fontSize=12" parent="1" vertex="1">
          <mxGeometry x="40" y="15" width="1620" height="865" as="geometry" />
        </mxCell>
        <mxCell id="7026571954dc6520-2" value="Site Settings" style="strokeWidth=1;shadow=0;dashed=0;align=center;html=1;shape=mxgraph.mockup.containers.anchor;fontSize=17;fontColor=#666666;align=left;" parent="7026571954dc6520-1" vertex="1">
          <mxGeometry x="60" y="12" width="110" height="26" as="geometry" />
        </mxCell>
        <mxCell id="7026571954dc6520-3" value="https://www.buffet.lk/site-settings" style="strokeWidth=1;shadow=0;dashed=0;align=center;html=1;shape=mxgraph.mockup.containers.anchor;rSize=0;fontSize=17;fontColor=#666666;align=left;" parent="7026571954dc6520-1" vertex="1">
          <mxGeometry x="130" y="60" width="250" height="26" as="geometry" />
        </mxCell>
        <mxCell id="7026571954dc6520-4" value="BUFFET.LK" style="text;html=1;points=[];align=left;verticalAlign=top;spacingTop=-4;fontSize=30;fontFamily=Verdana" parent="7026571954dc6520-1" vertex="1">
          <mxGeometry x="30" y="130" width="170" height="50" as="geometry" />
        </mxCell>
        <mxCell id="7026571954dc6520-6" value="Change Language" style="text;html=1;points=[];align=left;verticalAlign=top;spacingTop=-4;fontSize=15;fontFamily=Verdana" parent="7026571954dc6520-1" vertex="1">
          <mxGeometry x="1258" y="140" width="170" height="30" as="geometry" />
        </mxCell>
        <mxCell id="7026571954dc6520-10" value="Administrator" style="text;html=1;points=[];align=left;verticalAlign=top;spacingTop=-4;fontSize=15;fontFamily=Verdana" parent="7026571954dc6520-1" vertex="1">
          <mxGeometry x="1418" y="140" width="170" height="30" as="geometry" />
        </mxCell>
        <mxCell id="7026571954dc6520-14" value="Search" style="strokeWidth=1;shadow=0;dashed=0;align=center;html=1;shape=mxgraph.mockup.forms.searchBox;strokeColor=#999999;mainText=;strokeColor2=#008cff;fontColor=#666666;fontSize=17;align=left;spacingLeft=3;rounded=0;labelBackgroundColor=none;" parent="7026571954dc6520-1" vertex="1">
          <mxGeometry x="1008" y="135" width="220" height="30" as="geometry" />
        </mxCell>
        <mxCell id="7026571954dc6520-15" value="" style="verticalLabelPosition=bottom;shadow=0;dashed=0;align=center;html=1;verticalAlign=top;strokeWidth=1;shape=mxgraph.mockup.markup.line;strokeColor=#999999;rounded=0;labelBackgroundColor=none;fillColor=#ffffff;fontFamily=Verdana;fontSize=12;fontColor=#000000;" parent="7026571954dc6520-1" vertex="1">
          <mxGeometry y="170" width="1630" height="20" as="geometry" />
        </mxCell>
        <mxCell id="7026571954dc6520-16" value="Users" style="text;html=1;points=[];align=left;verticalAlign=top;spacingTop=-4;fontSize=15;fontFamily=Verdana" parent="7026571954dc6520-1" vertex="1">
          <mxGeometry x="20" y="200" width="210" height="30" as="geometry" />
        </mxCell>
        <mxCell id="7026571954dc6520-21" value="" style="verticalLabelPosition=bottom;shadow=0;dashed=0;align=center;html=1;verticalAlign=top;strokeWidth=1;shape=mxgraph.mockup.markup.line;strokeColor=#999999;rounded=0;labelBackgroundColor=none;fillColor=#ffffff;fontFamily=Verdana;fontSize=12;fontColor=#000000;rotation=-90;" parent="7026571954dc6520-1" vertex="1">
          <mxGeometry x="-85" y="510" width="680" height="20" as="geometry" />
        </mxCell>
        <mxCell id="7026571954dc6520-22" value="" style="verticalLabelPosition=bottom;shadow=0;dashed=0;align=center;html=1;verticalAlign=top;strokeWidth=1;shape=mxgraph.mockup.graphics.simpleIcon;strokeColor=#999999;fillColor=#ffffff;rounded=0;labelBackgroundColor=none;fontFamily=Verdana;fontSize=12;fontColor=#000000;" parent="7026571954dc6520-1" vertex="1">
          <mxGeometry x="1060" y="745" width="541" height="70" as="geometry" />
        </mxCell>
        <mxCell id="ANbJGIZtzcR_OAR0ISue-6" value="" style="sketch=0;outlineConnect=0;fontColor=#232F3E;gradientColor=none;fillColor=#232F3D;strokeColor=none;dashed=0;verticalLabelPosition=bottom;verticalAlign=top;align=center;html=1;fontSize=12;fontStyle=0;aspect=fixed;pointerEvents=1;shape=mxgraph.aws4.user;" vertex="1" parent="7026571954dc6520-1">
          <mxGeometry x="1563" y="127" width="38" height="38" as="geometry" />
        </mxCell>
        <mxCell id="ANbJGIZtzcR_OAR0ISue-4" value="" style="ellipse;whiteSpace=wrap;html=1;aspect=fixed;fillColor=none;" vertex="1" parent="7026571954dc6520-1">
          <mxGeometry x="1557" y="120" width="50" height="50" as="geometry" />
        </mxCell>
        <mxCell id="ANbJGIZtzcR_OAR0ISue-7" value="Customers" style="text;html=1;points=[];align=left;verticalAlign=top;spacingTop=-4;fontSize=15;fontFamily=Verdana" vertex="1" parent="7026571954dc6520-1">
          <mxGeometry x="20" y="230" width="210" height="30" as="geometry" />
        </mxCell>
        <mxCell id="ANbJGIZtzcR_OAR0ISue-8" value="Orders" style="text;html=1;points=[];align=left;verticalAlign=top;spacingTop=-4;fontSize=15;fontFamily=Verdana" vertex="1" parent="7026571954dc6520-1">
          <mxGeometry x="20" y="260" width="210" height="30" as="geometry" />
        </mxCell>
        <mxCell id="ANbJGIZtzcR_OAR0ISue-9" value="Language Settings" style="text;html=1;points=[];align=left;verticalAlign=top;spacingTop=-4;fontSize=15;fontFamily=Verdana" vertex="1" parent="7026571954dc6520-1">
          <mxGeometry x="20" y="290" width="210" height="30" as="geometry" />
        </mxCell>
        <mxCell id="ANbJGIZtzcR_OAR0ISue-10" value="Loyalty Points" style="text;html=1;points=[];align=left;verticalAlign=top;spacingTop=-4;fontSize=15;fontFamily=Verdana" vertex="1" parent="7026571954dc6520-1">
          <mxGeometry x="20" y="320" width="210" height="30" as="geometry" />
        </mxCell>
        <mxCell id="ANbJGIZtzcR_OAR0ISue-11" value="Referral Settings" style="text;html=1;points=[];align=left;verticalAlign=top;spacingTop=-4;fontSize=15;fontFamily=Verdana" vertex="1" parent="7026571954dc6520-1">
          <mxGeometry x="20" y="350" width="210" height="30" as="geometry" />
        </mxCell>
        <mxCell id="ANbJGIZtzcR_OAR0ISue-12" value="Location Master" style="text;html=1;points=[];align=left;verticalAlign=top;spacingTop=-4;fontSize=15;fontFamily=Verdana" vertex="1" parent="7026571954dc6520-1">
          <mxGeometry x="20" y="380" width="210" height="30" as="geometry" />
        </mxCell>
        <mxCell id="ANbJGIZtzcR_OAR0ISue-13" value="Social Networks" style="text;html=1;points=[];align=left;verticalAlign=top;spacingTop=-4;fontSize=15;fontFamily=Verdana" vertex="1" parent="7026571954dc6520-1">
          <mxGeometry x="43" y="530" width="210" height="30" as="geometry" />
        </mxCell>
        <mxCell id="ANbJGIZtzcR_OAR0ISue-14" value="Email Settings" style="text;html=1;points=[];align=left;verticalAlign=top;spacingTop=-4;fontSize=15;fontFamily=Verdana" vertex="1" parent="7026571954dc6520-1">
          <mxGeometry x="43" y="500" width="210" height="30" as="geometry" />
        </mxCell>
        <mxCell id="ANbJGIZtzcR_OAR0ISue-15" value="Paypal Settings" style="text;html=1;points=[];align=left;verticalAlign=top;spacingTop=-4;fontSize=15;fontFamily=Verdana" vertex="1" parent="7026571954dc6520-1">
          <mxGeometry x="43" y="470" width="210" height="30" as="geometry" />
        </mxCell>
        <mxCell id="ANbJGIZtzcR_OAR0ISue-16" value="Site Settings" style="text;html=1;points=[];align=left;verticalAlign=top;spacingTop=-4;fontSize=15;fontFamily=Verdana" vertex="1" parent="7026571954dc6520-1">
          <mxGeometry x="43" y="440" width="210" height="30" as="geometry" />
        </mxCell>
        <mxCell id="ANbJGIZtzcR_OAR0ISue-17" value="Master Settings" style="text;html=1;points=[];align=left;verticalAlign=top;spacingTop=-4;fontSize=15;fontFamily=Verdana" vertex="1" parent="7026571954dc6520-1">
          <mxGeometry x="20" y="410" width="210" height="30" as="geometry" />
        </mxCell>
        <mxCell id="ANbJGIZtzcR_OAR0ISue-18" value="SEO Settings" style="text;html=1;points=[];align=left;verticalAlign=top;spacingTop=-4;fontSize=15;fontFamily=Verdana" vertex="1" parent="7026571954dc6520-1">
          <mxGeometry x="43" y="555" width="210" height="30" as="geometry" />
        </mxCell>
        <mxCell id="ANbJGIZtzcR_OAR0ISue-19" value="SMS Templates" style="text;html=1;points=[];align=left;verticalAlign=top;spacingTop=-4;fontSize=15;fontFamily=Verdana" vertex="1" parent="7026571954dc6520-1">
          <mxGeometry x="43" y="705" width="210" height="30" as="geometry" />
        </mxCell>
        <mxCell id="ANbJGIZtzcR_OAR0ISue-20" value="Stripe Cards" style="text;html=1;points=[];align=left;verticalAlign=top;spacingTop=-4;fontSize=15;fontFamily=Verdana" vertex="1" parent="7026571954dc6520-1">
          <mxGeometry x="43" y="675" width="210" height="30" as="geometry" />
        </mxCell>
        <mxCell id="ANbJGIZtzcR_OAR0ISue-21" value="Push Notification Settings" style="text;html=1;points=[];align=left;verticalAlign=top;spacingTop=-4;fontSize=15;fontFamily=Verdana" vertex="1" parent="7026571954dc6520-1">
          <mxGeometry x="43" y="645" width="210" height="30" as="geometry" />
        </mxCell>
        <mxCell id="ANbJGIZtzcR_OAR0ISue-22" value="SMS Gateways" style="text;html=1;points=[];align=left;verticalAlign=top;spacingTop=-4;fontSize=15;fontFamily=Verdana" vertex="1" parent="7026571954dc6520-1">
          <mxGeometry x="43" y="615" width="210" height="30" as="geometry" />
        </mxCell>
        <mxCell id="ANbJGIZtzcR_OAR0ISue-23" value="Email Templates" style="text;html=1;points=[];align=left;verticalAlign=top;spacingTop=-4;fontSize=15;fontFamily=Verdana" vertex="1" parent="7026571954dc6520-1">
          <mxGeometry x="43" y="585" width="210" height="30" as="geometry" />
        </mxCell>
        <mxCell id="ANbJGIZtzcR_OAR0ISue-24" value="Reports" style="text;html=1;points=[];align=left;verticalAlign=top;spacingTop=-4;fontSize=15;fontFamily=Verdana" vertex="1" parent="7026571954dc6520-1">
          <mxGeometry x="20" y="735" width="210" height="30" as="geometry" />
        </mxCell>
        <mxCell id="ANbJGIZtzcR_OAR0ISue-27" value="Logout" style="text;html=1;points=[];align=left;verticalAlign=top;spacingTop=-4;fontSize=15;fontFamily=Verdana" vertex="1" parent="7026571954dc6520-1">
          <mxGeometry x="20" y="825" width="210" height="30" as="geometry" />
        </mxCell>
        <mxCell id="ANbJGIZtzcR_OAR0ISue-28" value="FAQs" style="text;html=1;points=[];align=left;verticalAlign=top;spacingTop=-4;fontSize=15;fontFamily=Verdana" vertex="1" parent="7026571954dc6520-1">
          <mxGeometry x="20" y="795" width="210" height="30" as="geometry" />
        </mxCell>
        <mxCell id="ANbJGIZtzcR_OAR0ISue-29" value="Pages" style="text;html=1;points=[];align=left;verticalAlign=top;spacingTop=-4;fontSize=15;fontFamily=Verdana" vertex="1" parent="7026571954dc6520-1">
          <mxGeometry x="20" y="765" width="210" height="30" as="geometry" />
        </mxCell>
        <mxCell id="ANbJGIZtzcR_OAR0ISue-30" value="" style="ellipse;whiteSpace=wrap;html=1;aspect=fixed;fillColor=default;strokeWidth=0.5;" vertex="1" parent="7026571954dc6520-1">
          <mxGeometry x="28" y="448" width="10" height="10" as="geometry" />
        </mxCell>
        <mxCell id="ANbJGIZtzcR_OAR0ISue-31" value="" style="ellipse;whiteSpace=wrap;html=1;aspect=fixed;fillColor=default;strokeWidth=0.5;" vertex="1" parent="7026571954dc6520-1">
          <mxGeometry x="28" y="478" width="10" height="10" as="geometry" />
        </mxCell>
        <mxCell id="ANbJGIZtzcR_OAR0ISue-32" value="" style="ellipse;whiteSpace=wrap;html=1;aspect=fixed;fillColor=default;strokeWidth=0.5;" vertex="1" parent="7026571954dc6520-1">
          <mxGeometry x="28" y="508" width="10" height="10" as="geometry" />
        </mxCell>
        <mxCell id="ANbJGIZtzcR_OAR0ISue-33" value="" style="ellipse;whiteSpace=wrap;html=1;aspect=fixed;fillColor=default;strokeWidth=0.5;" vertex="1" parent="7026571954dc6520-1">
          <mxGeometry x="28" y="538" width="10" height="10" as="geometry" />
        </mxCell>
        <mxCell id="ANbJGIZtzcR_OAR0ISue-34" value="" style="ellipse;whiteSpace=wrap;html=1;aspect=fixed;fillColor=default;strokeWidth=0.5;" vertex="1" parent="7026571954dc6520-1">
          <mxGeometry x="28" y="563" width="10" height="10" as="geometry" />
        </mxCell>
        <mxCell id="ANbJGIZtzcR_OAR0ISue-35" value="" style="ellipse;whiteSpace=wrap;html=1;aspect=fixed;fillColor=default;strokeWidth=0.5;" vertex="1" parent="7026571954dc6520-1">
          <mxGeometry x="28" y="593" width="10" height="10" as="geometry" />
        </mxCell>
        <mxCell id="ANbJGIZtzcR_OAR0ISue-36" value="" style="ellipse;whiteSpace=wrap;html=1;aspect=fixed;fillColor=default;strokeWidth=0.5;" vertex="1" parent="7026571954dc6520-1">
          <mxGeometry x="28" y="623" width="10" height="10" as="geometry" />
        </mxCell>
        <mxCell id="ANbJGIZtzcR_OAR0ISue-37" value="" style="ellipse;whiteSpace=wrap;html=1;aspect=fixed;fillColor=default;strokeWidth=0.5;" vertex="1" parent="7026571954dc6520-1">
          <mxGeometry x="28" y="653" width="10" height="10" as="geometry" />
        </mxCell>
        <mxCell id="ANbJGIZtzcR_OAR0ISue-38" value="" style="ellipse;whiteSpace=wrap;html=1;aspect=fixed;fillColor=default;strokeWidth=0.5;" vertex="1" parent="7026571954dc6520-1">
          <mxGeometry x="28" y="682" width="10" height="10" as="geometry" />
        </mxCell>
        <mxCell id="ANbJGIZtzcR_OAR0ISue-39" value="" style="ellipse;whiteSpace=wrap;html=1;aspect=fixed;fillColor=default;strokeWidth=0.5;" vertex="1" parent="7026571954dc6520-1">
          <mxGeometry x="28" y="711" width="10" height="10" as="geometry" />
        </mxCell>
        <mxCell id="ANbJGIZtzcR_OAR0ISue-40" value="" style="verticalLabelPosition=bottom;shadow=0;dashed=0;align=center;html=1;verticalAlign=top;strokeWidth=1;shape=mxgraph.mockup.markup.line;strokeColor=#999999;rounded=0;labelBackgroundColor=none;fillColor=#ffffff;fontFamily=Verdana;fontSize=12;fontColor=#000000;" vertex="1" parent="7026571954dc6520-1">
          <mxGeometry x="260" y="200" width="1370" height="20" as="geometry" />
        </mxCell>
        <mxCell id="ANbJGIZtzcR_OAR0ISue-41" value="Site Settings" style="text;html=1;points=[];align=left;verticalAlign=top;spacingTop=-4;fontSize=15;fontFamily=Verdana" vertex="1" parent="7026571954dc6520-1">
          <mxGeometry x="269" y="183" width="170" height="30" as="geometry" />
        </mxCell>
        <mxCell id="ANbJGIZtzcR_OAR0ISue-46" value="" style="group" vertex="1" connectable="0" parent="7026571954dc6520-1">
          <mxGeometry x="268" y="230" width="732" height="59" as="geometry" />
        </mxCell>
        <mxCell id="ANbJGIZtzcR_OAR0ISue-42" value="&lt;b&gt;Option&lt;/b&gt;" style="text;html=1;points=[];align=left;verticalAlign=top;spacingTop=-4;fontSize=15;fontFamily=Verdana" vertex="1" parent="ANbJGIZtzcR_OAR0ISue-46">
          <mxGeometry x="1.1787439613526571" width="200.3864734299517" height="30" as="geometry" />
        </mxCell>
        <mxCell id="ANbJGIZtzcR_OAR0ISue-45" value="" style="group" vertex="1" connectable="0" parent="ANbJGIZtzcR_OAR0ISue-46">
          <mxGeometry y="27" width="732" height="32" as="geometry" />
        </mxCell>
        <mxCell id="ANbJGIZtzcR_OAR0ISue-43" value="" style="rounded=1;whiteSpace=wrap;html=1;strokeWidth=0.5;fillColor=none;arcSize=7;" vertex="1" parent="ANbJGIZtzcR_OAR0ISue-45">
          <mxGeometry width="732" height="30" as="geometry" />
        </mxCell>
        <mxCell id="ANbJGIZtzcR_OAR0ISue-44" value="&lt;font style=&quot;font-size: 13px&quot; color=&quot;#808080&quot;&gt;Text&lt;/font&gt;" style="text;html=1;points=[];align=left;verticalAlign=top;spacingTop=-4;fontSize=15;fontFamily=Verdana" vertex="1" parent="ANbJGIZtzcR_OAR0ISue-45">
          <mxGeometry x="11.78743961352657" y="2" width="200.3864734299517" height="30" as="geometry" />
        </mxCell>
        <mxCell id="ANbJGIZtzcR_OAR0ISue-47" value="" style="group" vertex="1" connectable="0" parent="7026571954dc6520-1">
          <mxGeometry x="269" y="305.5" width="731" height="59" as="geometry" />
        </mxCell>
        <mxCell id="ANbJGIZtzcR_OAR0ISue-48" value="&lt;b&gt;Option&lt;/b&gt;" style="text;html=1;points=[];align=left;verticalAlign=top;spacingTop=-4;fontSize=15;fontFamily=Verdana" vertex="1" parent="ANbJGIZtzcR_OAR0ISue-47">
          <mxGeometry x="1.1771336553945249" width="200.11272141706922" height="30" as="geometry" />
        </mxCell>
        <mxCell id="ANbJGIZtzcR_OAR0ISue-49" value="" style="group" vertex="1" connectable="0" parent="ANbJGIZtzcR_OAR0ISue-47">
          <mxGeometry y="27" width="730.9999999999999" height="32" as="geometry" />
        </mxCell>
        <mxCell id="ANbJGIZtzcR_OAR0ISue-50" value="" style="rounded=1;whiteSpace=wrap;html=1;strokeWidth=0.5;fillColor=none;arcSize=7;" vertex="1" parent="ANbJGIZtzcR_OAR0ISue-49">
          <mxGeometry width="730.9999999999999" height="30" as="geometry" />
        </mxCell>
        <mxCell id="ANbJGIZtzcR_OAR0ISue-51" value="&lt;font style=&quot;font-size: 13px&quot; color=&quot;#808080&quot;&gt;Text&lt;/font&gt;" style="text;html=1;points=[];align=left;verticalAlign=top;spacingTop=-4;fontSize=15;fontFamily=Verdana" vertex="1" parent="ANbJGIZtzcR_OAR0ISue-49">
          <mxGeometry x="11.771336553945249" y="2" width="200.11272141706922" height="30" as="geometry" />
        </mxCell>
        <mxCell id="ANbJGIZtzcR_OAR0ISue-52" value="" style="group" vertex="1" connectable="0" parent="7026571954dc6520-1">
          <mxGeometry x="268" y="381" width="732" height="59" as="geometry" />
        </mxCell>
        <mxCell id="ANbJGIZtzcR_OAR0ISue-53" value="&lt;b&gt;Option&lt;/b&gt;" style="text;html=1;points=[];align=left;verticalAlign=top;spacingTop=-4;fontSize=15;fontFamily=Verdana" vertex="1" parent="ANbJGIZtzcR_OAR0ISue-52">
          <mxGeometry x="1.178743961352657" width="200.38647342995168" height="30" as="geometry" />
        </mxCell>
        <mxCell id="ANbJGIZtzcR_OAR0ISue-54" value="" style="group" vertex="1" connectable="0" parent="ANbJGIZtzcR_OAR0ISue-52">
          <mxGeometry y="27" width="731.9999999999999" height="32" as="geometry" />
        </mxCell>
        <mxCell id="ANbJGIZtzcR_OAR0ISue-55" value="" style="rounded=1;whiteSpace=wrap;html=1;strokeWidth=0.5;fillColor=none;arcSize=7;" vertex="1" parent="ANbJGIZtzcR_OAR0ISue-54">
          <mxGeometry width="731.9999999999999" height="30" as="geometry" />
        </mxCell>
        <mxCell id="ANbJGIZtzcR_OAR0ISue-56" value="&lt;font style=&quot;font-size: 13px&quot; color=&quot;#808080&quot;&gt;Text&lt;/font&gt;" style="text;html=1;points=[];align=left;verticalAlign=top;spacingTop=-4;fontSize=15;fontFamily=Verdana" vertex="1" parent="ANbJGIZtzcR_OAR0ISue-54">
          <mxGeometry x="11.787439613526569" y="2" width="200.38647342995168" height="30" as="geometry" />
        </mxCell>
        <mxCell id="ANbJGIZtzcR_OAR0ISue-57" value="" style="group" vertex="1" connectable="0" parent="7026571954dc6520-1">
          <mxGeometry x="268" y="459" width="732" height="59" as="geometry" />
        </mxCell>
        <mxCell id="ANbJGIZtzcR_OAR0ISue-58" value="&lt;b&gt;Option&lt;/b&gt;" style="text;html=1;points=[];align=left;verticalAlign=top;spacingTop=-4;fontSize=15;fontFamily=Verdana" vertex="1" parent="ANbJGIZtzcR_OAR0ISue-57">
          <mxGeometry x="1.178743961352657" width="200.38647342995168" height="30" as="geometry" />
        </mxCell>
        <mxCell id="ANbJGIZtzcR_OAR0ISue-59" value="" style="group" vertex="1" connectable="0" parent="ANbJGIZtzcR_OAR0ISue-57">
          <mxGeometry y="27" width="731.9999999999999" height="32" as="geometry" />
        </mxCell>
        <mxCell id="ANbJGIZtzcR_OAR0ISue-60" value="" style="rounded=1;whiteSpace=wrap;html=1;strokeWidth=0.5;fillColor=none;arcSize=7;" vertex="1" parent="ANbJGIZtzcR_OAR0ISue-59">
          <mxGeometry width="731.9999999999999" height="30" as="geometry" />
        </mxCell>
        <mxCell id="ANbJGIZtzcR_OAR0ISue-61" value="&lt;font style=&quot;font-size: 13px&quot; color=&quot;#808080&quot;&gt;Text&lt;/font&gt;" style="text;html=1;points=[];align=left;verticalAlign=top;spacingTop=-4;fontSize=15;fontFamily=Verdana" vertex="1" parent="ANbJGIZtzcR_OAR0ISue-59">
          <mxGeometry x="11.787439613526569" y="2" width="200.38647342995168" height="30" as="geometry" />
        </mxCell>
        <mxCell id="ANbJGIZtzcR_OAR0ISue-62" value="" style="group" vertex="1" connectable="0" parent="7026571954dc6520-1">
          <mxGeometry x="268" y="544" width="732" height="59" as="geometry" />
        </mxCell>
        <mxCell id="ANbJGIZtzcR_OAR0ISue-63" value="&lt;b&gt;Option&lt;/b&gt;" style="text;html=1;points=[];align=left;verticalAlign=top;spacingTop=-4;fontSize=15;fontFamily=Verdana" vertex="1" parent="ANbJGIZtzcR_OAR0ISue-62">
          <mxGeometry x="1.178743961352657" width="200.38647342995168" height="30" as="geometry" />
        </mxCell>
        <mxCell id="ANbJGIZtzcR_OAR0ISue-64" value="" style="group" vertex="1" connectable="0" parent="ANbJGIZtzcR_OAR0ISue-62">
          <mxGeometry y="27" width="731.9999999999999" height="32" as="geometry" />
        </mxCell>
        <mxCell id="ANbJGIZtzcR_OAR0ISue-65" value="" style="rounded=1;whiteSpace=wrap;html=1;strokeWidth=0.5;fillColor=none;arcSize=7;" vertex="1" parent="ANbJGIZtzcR_OAR0ISue-64">
          <mxGeometry width="731.9999999999999" height="30" as="geometry" />
        </mxCell>
        <mxCell id="ANbJGIZtzcR_OAR0ISue-66" value="&lt;font style=&quot;font-size: 13px&quot; color=&quot;#808080&quot;&gt;Text&lt;/font&gt;" style="text;html=1;points=[];align=left;verticalAlign=top;spacingTop=-4;fontSize=15;fontFamily=Verdana" vertex="1" parent="ANbJGIZtzcR_OAR0ISue-64">
          <mxGeometry x="11.787439613526569" y="2" width="200.38647342995168" height="30" as="geometry" />
        </mxCell>
        <mxCell id="ANbJGIZtzcR_OAR0ISue-67" value="" style="group" vertex="1" connectable="0" parent="7026571954dc6520-1">
          <mxGeometry x="269" y="628.5" width="731" height="59" as="geometry" />
        </mxCell>
        <mxCell id="ANbJGIZtzcR_OAR0ISue-68" value="&lt;b&gt;Option&lt;/b&gt;" style="text;html=1;points=[];align=left;verticalAlign=top;spacingTop=-4;fontSize=15;fontFamily=Verdana" vertex="1" parent="ANbJGIZtzcR_OAR0ISue-67">
          <mxGeometry x="1.1771336553945249" width="200.11272141706922" height="30" as="geometry" />
        </mxCell>
        <mxCell id="ANbJGIZtzcR_OAR0ISue-69" value="" style="group" vertex="1" connectable="0" parent="ANbJGIZtzcR_OAR0ISue-67">
          <mxGeometry y="27" width="730.9999999999999" height="32" as="geometry" />
        </mxCell>
        <mxCell id="ANbJGIZtzcR_OAR0ISue-70" value="" style="rounded=1;whiteSpace=wrap;html=1;strokeWidth=0.5;fillColor=none;arcSize=7;" vertex="1" parent="ANbJGIZtzcR_OAR0ISue-69">
          <mxGeometry width="730.9999999999999" height="30" as="geometry" />
        </mxCell>
        <mxCell id="ANbJGIZtzcR_OAR0ISue-71" value="&lt;font style=&quot;font-size: 13px&quot; color=&quot;#808080&quot;&gt;Text&lt;/font&gt;" style="text;html=1;points=[];align=left;verticalAlign=top;spacingTop=-4;fontSize=15;fontFamily=Verdana" vertex="1" parent="ANbJGIZtzcR_OAR0ISue-69">
          <mxGeometry x="11.771336553945249" y="2" width="200.11272141706922" height="30" as="geometry" />
        </mxCell>
        <mxCell id="ANbJGIZtzcR_OAR0ISue-72" value="" style="group;fillColor=default;container=0;" vertex="1" connectable="0" parent="7026571954dc6520-1">
          <mxGeometry x="270" y="715" width="730" height="68" as="geometry" />
        </mxCell>
        <mxCell id="ANbJGIZtzcR_OAR0ISue-77" value="" style="group" vertex="1" connectable="0" parent="7026571954dc6520-1">
          <mxGeometry x="270" y="795" width="730" height="59" as="geometry" />
        </mxCell>
        <mxCell id="ANbJGIZtzcR_OAR0ISue-78" value="&lt;b&gt;Option&lt;/b&gt;" style="text;html=1;points=[];align=left;verticalAlign=top;spacingTop=-4;fontSize=15;fontFamily=Verdana" vertex="1" parent="ANbJGIZtzcR_OAR0ISue-77">
          <mxGeometry x="1.1755233494363928" width="199.83896940418677" height="30" as="geometry" />
        </mxCell>
        <mxCell id="ANbJGIZtzcR_OAR0ISue-79" value="" style="group" vertex="1" connectable="0" parent="ANbJGIZtzcR_OAR0ISue-77">
          <mxGeometry y="27" width="729.9999999999999" height="32" as="geometry" />
        </mxCell>
        <mxCell id="ANbJGIZtzcR_OAR0ISue-80" value="" style="rounded=1;whiteSpace=wrap;html=1;strokeWidth=0.5;fillColor=none;arcSize=7;" vertex="1" parent="ANbJGIZtzcR_OAR0ISue-79">
          <mxGeometry width="729.9999999999999" height="30" as="geometry" />
        </mxCell>
        <mxCell id="ANbJGIZtzcR_OAR0ISue-81" value="&lt;font style=&quot;font-size: 13px&quot; color=&quot;#808080&quot;&gt;Text&lt;/font&gt;" style="text;html=1;points=[];align=left;verticalAlign=top;spacingTop=-4;fontSize=15;fontFamily=Verdana" vertex="1" parent="ANbJGIZtzcR_OAR0ISue-79">
          <mxGeometry x="11.755233494363928" y="2" width="199.83896940418677" height="30" as="geometry" />
        </mxCell>
        <mxCell id="Xwb90HfcSQhMZAElpGEc-1" value="Choose File" style="strokeWidth=1;shadow=0;dashed=0;align=center;html=1;shape=mxgraph.mockup.buttons.button;strokeColor=#666666;mainText=;buttonStyle=round;fontSize=17;fontStyle=0;fillColor=none;whiteSpace=wrap;rounded=0;labelBackgroundColor=none;" vertex="1" parent="7026571954dc6520-1">
          <mxGeometry x="1060" y="711" width="110" height="29" as="geometry" />
        </mxCell>
        <mxCell id="Xwb90HfcSQhMZAElpGEc-2" value="&lt;font style=&quot;font-size: 13px&quot; color=&quot;#808080&quot;&gt;No file chosen&lt;/font&gt;" style="text;html=1;points=[];align=left;verticalAlign=top;spacingTop=-4;fontSize=15;fontFamily=Verdana" vertex="1" parent="7026571954dc6520-1">
          <mxGeometry x="1179.995233494364" y="711" width="199.83896940418677" height="30" as="geometry" />
        </mxCell>
        <mxCell id="Xwb90HfcSQhMZAElpGEc-4" value="" style="group" vertex="1" connectable="0" parent="7026571954dc6520-1">
          <mxGeometry x="1060" y="825" width="100" height="25" as="geometry" />
        </mxCell>
        <mxCell id="Xwb90HfcSQhMZAElpGEc-5" value="" style="rounded=1;whiteSpace=wrap;html=1;strokeWidth=0.5;fillColor=#080808;arcSize=13;strokeColor=none;" vertex="1" parent="Xwb90HfcSQhMZAElpGEc-4">
          <mxGeometry width="100" height="23.4375" as="geometry" />
        </mxCell>
        <mxCell id="Xwb90HfcSQhMZAElpGEc-6" value="&lt;font style=&quot;font-size: 13px&quot; color=&quot;#ffffff&quot;&gt;Update&lt;/font&gt;" style="text;html=1;points=[];align=left;verticalAlign=top;spacingTop=-4;fontSize=15;fontFamily=Verdana" vertex="1" parent="Xwb90HfcSQhMZAElpGEc-4">
          <mxGeometry x="24.150000000000002" y="-1" width="53.69" height="23.44" as="geometry" />
        </mxCell>
        <mxCell id="Xwb90HfcSQhMZAElpGEc-9" value="" style="verticalLabelPosition=bottom;shadow=0;dashed=0;align=center;html=1;verticalAlign=top;strokeWidth=1;shape=mxgraph.mockup.graphics.simpleIcon;strokeColor=#999999;fillColor=#ffffff;rounded=0;labelBackgroundColor=none;fontFamily=Verdana;fontSize=12;fontColor=#000000;" vertex="1" parent="7026571954dc6520-1">
          <mxGeometry x="1060" y="588" width="434" height="70" as="geometry" />
        </mxCell>
        <mxCell id="Xwb90HfcSQhMZAElpGEc-10" value="Choose File" style="strokeWidth=1;shadow=0;dashed=0;align=center;html=1;shape=mxgraph.mockup.buttons.button;strokeColor=#666666;mainText=;buttonStyle=round;fontSize=17;fontStyle=0;fillColor=none;whiteSpace=wrap;rounded=0;labelBackgroundColor=none;" vertex="1" parent="7026571954dc6520-1">
          <mxGeometry x="1060" y="556" width="110" height="29" as="geometry" />
        </mxCell>
        <mxCell id="Xwb90HfcSQhMZAElpGEc-11" value="&lt;font style=&quot;font-size: 13px&quot; color=&quot;#808080&quot;&gt;No file chosen&lt;/font&gt;" style="text;html=1;points=[];align=left;verticalAlign=top;spacingTop=-4;fontSize=15;fontFamily=Verdana" vertex="1" parent="7026571954dc6520-1">
          <mxGeometry x="1179.995233494364" y="556" width="199.83896940418677" height="30" as="geometry" />
        </mxCell>
        <mxCell id="Xwb90HfcSQhMZAElpGEc-12" value="&lt;b&gt;Home Page Cover Image&lt;/b&gt;" style="text;html=1;points=[];align=left;verticalAlign=top;spacingTop=-4;fontSize=15;fontFamily=Verdana" vertex="1" parent="7026571954dc6520-1">
          <mxGeometry x="1061.8871336553946" y="681" width="200.11272141706922" height="30" as="geometry" />
        </mxCell>
        <mxCell id="Xwb90HfcSQhMZAElpGEc-13" value="&lt;b&gt;Site Logo&lt;/b&gt;" style="text;html=1;points=[];align=left;verticalAlign=top;spacingTop=-4;fontSize=15;fontFamily=Verdana" vertex="1" parent="7026571954dc6520-1">
          <mxGeometry x="1059.9971336553945" y="526" width="200.11272141706922" height="30" as="geometry" />
        </mxCell>
        <mxCell id="Xwb90HfcSQhMZAElpGEc-14" value="&lt;b&gt;Favicon&lt;/b&gt;" style="text;html=1;points=[];align=left;verticalAlign=top;spacingTop=-4;fontSize=15;fontFamily=Verdana" vertex="1" parent="7026571954dc6520-1">
          <mxGeometry x="1059.9971336553945" y="386" width="200.11272141706922" height="30" as="geometry" />
        </mxCell>
        <mxCell id="Xwb90HfcSQhMZAElpGEc-15" value="Choose File" style="strokeWidth=1;shadow=0;dashed=0;align=center;html=1;shape=mxgraph.mockup.buttons.button;strokeColor=#666666;mainText=;buttonStyle=round;fontSize=17;fontStyle=0;fillColor=none;whiteSpace=wrap;rounded=0;labelBackgroundColor=none;" vertex="1" parent="7026571954dc6520-1">
          <mxGeometry x="1060" y="416" width="110" height="29" as="geometry" />
        </mxCell>
        <mxCell id="Xwb90HfcSQhMZAElpGEc-16" value="&lt;font style=&quot;font-size: 13px&quot; color=&quot;#808080&quot;&gt;No file chosen&lt;/font&gt;" style="text;html=1;points=[];align=left;verticalAlign=top;spacingTop=-4;fontSize=15;fontFamily=Verdana" vertex="1" parent="7026571954dc6520-1">
          <mxGeometry x="1179.995233494364" y="416" width="199.83896940418677" height="30" as="geometry" />
        </mxCell>
        <mxCell id="Xwb90HfcSQhMZAElpGEc-17" value="" style="verticalLabelPosition=bottom;shadow=0;dashed=0;align=center;html=1;verticalAlign=top;strokeWidth=1;shape=mxgraph.mockup.graphics.simpleIcon;strokeColor=#999999;fillColor=#ffffff;rounded=0;labelBackgroundColor=none;fontFamily=Verdana;fontSize=12;fontColor=#000000;" vertex="1" parent="7026571954dc6520-1">
          <mxGeometry x="1060" y="448" width="80" height="70" as="geometry" />
        </mxCell>
        <mxCell id="Xwb90HfcSQhMZAElpGEc-19" value="&lt;b&gt;Option&lt;/b&gt;" style="text;html=1;points=[];align=left;verticalAlign=top;spacingTop=-4;fontSize=15;fontFamily=Verdana" vertex="1" parent="7026571954dc6520-1">
          <mxGeometry x="1062.6146376811596" y="230" width="123.18840579710144" height="30" as="geometry" />
        </mxCell>
        <mxCell id="Xwb90HfcSQhMZAElpGEc-20" value="" style="group" vertex="1" connectable="0" parent="7026571954dc6520-1">
          <mxGeometry x="1061.89" y="257" width="228.11" height="32" as="geometry" />
        </mxCell>
        <mxCell id="Xwb90HfcSQhMZAElpGEc-21" value="" style="rounded=1;whiteSpace=wrap;html=1;strokeWidth=0.5;fillColor=none;arcSize=7;" vertex="1" parent="Xwb90HfcSQhMZAElpGEc-20">
          <mxGeometry width="228.11" height="30" as="geometry" />
        </mxCell>
        <mxCell id="Xwb90HfcSQhMZAElpGEc-22" value="&lt;font style=&quot;font-size: 13px&quot; color=&quot;#808080&quot;&gt;Text&lt;/font&gt;" style="text;html=1;points=[];align=left;verticalAlign=top;spacingTop=-4;fontSize=15;fontFamily=Verdana" vertex="1" parent="Xwb90HfcSQhMZAElpGEc-20">
          <mxGeometry x="3.673268921095009" y="2" width="62.44557165861515" height="30" as="geometry" />
        </mxCell>
        <mxCell id="Xwb90HfcSQhMZAElpGEc-25" value="" style="group" vertex="1" connectable="0" parent="7026571954dc6520-1">
          <mxGeometry x="1360" y="258" width="241" height="32" as="geometry" />
        </mxCell>
        <mxCell id="Xwb90HfcSQhMZAElpGEc-26" value="" style="rounded=1;whiteSpace=wrap;html=1;strokeWidth=0.5;fillColor=none;arcSize=7;" vertex="1" parent="Xwb90HfcSQhMZAElpGEc-25">
          <mxGeometry width="241" height="30" as="geometry" />
        </mxCell>
        <mxCell id="Xwb90HfcSQhMZAElpGEc-27" value="&lt;font style=&quot;font-size: 13px&quot; color=&quot;#808080&quot;&gt;Text&lt;/font&gt;" style="text;html=1;points=[];align=left;verticalAlign=top;spacingTop=-4;fontSize=15;fontFamily=Verdana" vertex="1" parent="Xwb90HfcSQhMZAElpGEc-25">
          <mxGeometry x="3.8808373590982295" y="2" width="65.9742351046699" height="30" as="geometry" />
        </mxCell>
        <mxCell id="Xwb90HfcSQhMZAElpGEc-29" value="&lt;font style=&quot;font-size: 13px&quot; color=&quot;#808080&quot;&gt;To&lt;/font&gt;" style="text;html=1;points=[];align=left;verticalAlign=top;spacingTop=-4;fontSize=15;fontFamily=Verdana" vertex="1" parent="7026571954dc6520-1">
          <mxGeometry x="1317.5800000000002" y="260" width="25.83" height="30" as="geometry" />
        </mxCell>
        <mxCell id="Xwb90HfcSQhMZAElpGEc-33" value="" style="group" vertex="1" connectable="0" parent="7026571954dc6520-1">
          <mxGeometry x="1060" y="332.5" width="228.11" height="32" as="geometry" />
        </mxCell>
        <mxCell id="Xwb90HfcSQhMZAElpGEc-34" value="" style="rounded=1;whiteSpace=wrap;html=1;strokeWidth=0.5;fillColor=#C2C2C2;arcSize=7;" vertex="1" parent="Xwb90HfcSQhMZAElpGEc-33">
          <mxGeometry width="228.11" height="30" as="geometry" />
        </mxCell>
        <mxCell id="Xwb90HfcSQhMZAElpGEc-35" value="&lt;font style=&quot;font-size: 13px&quot; color=&quot;#1f1f1f&quot;&gt;Text&lt;/font&gt;" style="text;html=1;points=[];align=left;verticalAlign=top;spacingTop=-4;fontSize=15;fontFamily=Verdana" vertex="1" parent="Xwb90HfcSQhMZAElpGEc-33">
          <mxGeometry x="3.673268921095009" y="2" width="62.44557165861515" height="30" as="geometry" />
        </mxCell>
        <mxCell id="Xwb90HfcSQhMZAElpGEc-37" value="" style="triangle;whiteSpace=wrap;html=1;fontSize=13;fontColor=#1F1F1F;strokeWidth=0.5;fillColor=#1C1C1C;rotation=90;strokeColor=default;" vertex="1" parent="Xwb90HfcSQhMZAElpGEc-33">
          <mxGeometry x="210" y="14" width="4.5" height="6" as="geometry" />
        </mxCell>
        <mxCell id="Xwb90HfcSQhMZAElpGEc-36" value="&lt;b&gt;Option&lt;/b&gt;" style="text;html=1;points=[];align=left;verticalAlign=top;spacingTop=-4;fontSize=15;fontFamily=Verdana" vertex="1" parent="7026571954dc6520-1">
          <mxGeometry x="1060.7246376811595" y="305.5" width="123.18840579710144" height="30" as="geometry" />
        </mxCell>
        <mxCell id="Xwb90HfcSQhMZAElpGEc-38" value="&lt;b&gt;Option&lt;/b&gt;" style="text;html=1;points=[];align=left;verticalAlign=top;spacingTop=-4;fontSize=15;fontFamily=Verdana" vertex="1" parent="7026571954dc6520-1">
          <mxGeometry x="1360.7246376811595" y="305.5" width="123.18840579710144" height="30" as="geometry" />
        </mxCell>
        <mxCell id="Xwb90HfcSQhMZAElpGEc-39" value="" style="group" vertex="1" connectable="0" parent="7026571954dc6520-1">
          <mxGeometry x="1360" y="332.5" width="93.88000000000011" height="33" as="geometry" />
        </mxCell>
        <mxCell id="Xwb90HfcSQhMZAElpGEc-40" value="" style="rounded=1;whiteSpace=wrap;html=1;strokeWidth=0.5;fillColor=none;arcSize=43;" vertex="1" parent="Xwb90HfcSQhMZAElpGEc-39">
          <mxGeometry width="90" height="30" as="geometry" />
        </mxCell>
        <mxCell id="Xwb90HfcSQhMZAElpGEc-64" value="" style="group" vertex="1" connectable="0" parent="Xwb90HfcSQhMZAElpGEc-39">
          <mxGeometry x="2.72" y="2" width="47.28" height="28" as="geometry" />
        </mxCell>
        <mxCell id="Xwb90HfcSQhMZAElpGEc-65" value="" style="rounded=1;whiteSpace=wrap;html=1;strokeWidth=0.5;fillColor=#C2C2C2;arcSize=50;strokeColor=none;" vertex="1" parent="Xwb90HfcSQhMZAElpGEc-64">
          <mxGeometry width="47.28" height="26.25" as="geometry" />
        </mxCell>
        <mxCell id="Xwb90HfcSQhMZAElpGEc-66" value="&lt;font style=&quot;font-size: 11px&quot; color=&quot;#030303&quot;&gt;OFF&lt;/font&gt;" style="text;html=1;points=[];align=left;verticalAlign=top;spacingTop=-4;fontSize=15;fontFamily=Verdana" vertex="1" parent="Xwb90HfcSQhMZAElpGEc-39">
          <mxGeometry x="56.689275362318995" y="3" width="24.637681159420296" height="30" as="geometry" />
        </mxCell>
        <mxCell id="Xwb90HfcSQhMZAElpGEc-44" value="" style="group" vertex="1" connectable="0" parent="7026571954dc6520-1">
          <mxGeometry x="1162" y="824" width="100" height="24.4375" as="geometry" />
        </mxCell>
        <mxCell id="Xwb90HfcSQhMZAElpGEc-7" value="" style="rounded=1;whiteSpace=wrap;html=1;strokeWidth=0.5;fillColor=#808080;arcSize=13;strokeColor=none;" vertex="1" parent="Xwb90HfcSQhMZAElpGEc-44">
          <mxGeometry y="1" width="100" height="23.4375" as="geometry" />
        </mxCell>
        <mxCell id="Xwb90HfcSQhMZAElpGEc-8" value="&lt;font style=&quot;font-size: 13px&quot; color=&quot;#ffffff&quot;&gt;Cancel&lt;/font&gt;" style="text;html=1;points=[];align=left;verticalAlign=top;spacingTop=-4;fontSize=15;fontFamily=Verdana" vertex="1" parent="Xwb90HfcSQhMZAElpGEc-44">
          <mxGeometry x="24.15000000000009" width="53.69" height="23.44" as="geometry" />
        </mxCell>
        <mxCell id="ANbJGIZtzcR_OAR0ISue-73" value="&lt;b&gt;Option&lt;/b&gt;" style="text;html=1;points=[];align=left;verticalAlign=top;spacingTop=-4;fontSize=15;fontFamily=Verdana" vertex="1" parent="7026571954dc6520-1">
          <mxGeometry x="271.1755233494364" y="715" width="199.83896940418677" height="30" as="geometry" />
        </mxCell>
        <mxCell id="ANbJGIZtzcR_OAR0ISue-74" value="" style="group;fillColor=#E6E6E6;strokeColor=none;" vertex="1" connectable="0" parent="7026571954dc6520-1">
          <mxGeometry x="270" y="742" width="729.9999999999999" height="32" as="geometry" />
        </mxCell>
        <mxCell id="ANbJGIZtzcR_OAR0ISue-75" value="" style="rounded=1;whiteSpace=wrap;html=1;strokeWidth=0.5;fillColor=none;arcSize=7;" vertex="1" parent="ANbJGIZtzcR_OAR0ISue-74">
          <mxGeometry width="729.9999999999999" height="30" as="geometry" />
        </mxCell>
        <mxCell id="Xwb90HfcSQhMZAElpGEc-55" value="" style="group" vertex="1" connectable="0" parent="ANbJGIZtzcR_OAR0ISue-74">
          <mxGeometry x="4.7900000000000205" y="1.7799999999999727" width="130.21" height="24.440000000000005" as="geometry" />
        </mxCell>
        <mxCell id="Xwb90HfcSQhMZAElpGEc-46" value="" style="rounded=1;whiteSpace=wrap;html=1;strokeWidth=0.5;fillColor=#C7C7C7;arcSize=13;strokeColor=none;" vertex="1" parent="Xwb90HfcSQhMZAElpGEc-55">
          <mxGeometry y="1.0001023017902817" width="130.21" height="23.439897698209723" as="geometry" />
        </mxCell>
        <mxCell id="Xwb90HfcSQhMZAElpGEc-47" value="&lt;font style=&quot;font-size: 13px&quot;&gt;Item&lt;/font&gt;" style="text;html=1;points=[];align=left;verticalAlign=top;spacingTop=-4;fontSize=15;fontFamily=Verdana" vertex="1" parent="Xwb90HfcSQhMZAElpGEc-55">
          <mxGeometry x="13.44571500000012" width="69.909749" height="23.4423979539642" as="geometry" />
        </mxCell>
        <mxCell id="Xwb90HfcSQhMZAElpGEc-54" value="" style="shape=image;html=1;verticalAlign=top;verticalLabelPosition=bottom;labelBackgroundColor=#ffffff;imageAspect=0;aspect=fixed;image=https://cdn2.iconfinder.com/data/icons/essential-web-1-1/50/close-cross-error-wrong-reject-128.png;fontSize=13;fontColor=#000000;strokeColor=default;strokeWidth=0;fillColor=#1C1C1C;imageBackground=none;" vertex="1" parent="Xwb90HfcSQhMZAElpGEc-55">
          <mxGeometry x="110" y="8.18" width="9.09" height="9.09" as="geometry" />
        </mxCell>
        <mxCell id="Xwb90HfcSQhMZAElpGEc-56" value="" style="group" vertex="1" connectable="0" parent="ANbJGIZtzcR_OAR0ISue-74">
          <mxGeometry x="140" y="1.7799999999999727" width="130.21" height="24.440000000000005" as="geometry" />
        </mxCell>
        <mxCell id="Xwb90HfcSQhMZAElpGEc-57" value="" style="rounded=1;whiteSpace=wrap;html=1;strokeWidth=0.5;fillColor=#C7C7C7;arcSize=13;strokeColor=none;" vertex="1" parent="Xwb90HfcSQhMZAElpGEc-56">
          <mxGeometry y="1.0001023017902817" width="130.21" height="23.439897698209723" as="geometry" />
        </mxCell>
        <mxCell id="Xwb90HfcSQhMZAElpGEc-58" value="&lt;font style=&quot;font-size: 13px&quot;&gt;Item&lt;/font&gt;" style="text;html=1;points=[];align=left;verticalAlign=top;spacingTop=-4;fontSize=15;fontFamily=Verdana" vertex="1" parent="Xwb90HfcSQhMZAElpGEc-56">
          <mxGeometry x="13.44571500000012" width="69.909749" height="23.4423979539642" as="geometry" />
        </mxCell>
        <mxCell id="Xwb90HfcSQhMZAElpGEc-59" value="" style="shape=image;html=1;verticalAlign=top;verticalLabelPosition=bottom;labelBackgroundColor=#ffffff;imageAspect=0;aspect=fixed;image=https://cdn2.iconfinder.com/data/icons/essential-web-1-1/50/close-cross-error-wrong-reject-128.png;fontSize=13;fontColor=#000000;strokeColor=default;strokeWidth=0;fillColor=#1C1C1C;imageBackground=none;" vertex="1" parent="Xwb90HfcSQhMZAElpGEc-56">
          <mxGeometry x="110" y="8.18" width="9.09" height="9.09" as="geometry" />
        </mxCell>
        <mxCell id="Xwb90HfcSQhMZAElpGEc-60" value="" style="group" vertex="1" connectable="0" parent="ANbJGIZtzcR_OAR0ISue-74">
          <mxGeometry x="275.21" y="1.7799999999999727" width="130.21" height="24.440000000000005" as="geometry" />
        </mxCell>
        <mxCell id="Xwb90HfcSQhMZAElpGEc-61" value="" style="rounded=1;whiteSpace=wrap;html=1;strokeWidth=0.5;fillColor=#C7C7C7;arcSize=13;strokeColor=none;" vertex="1" parent="Xwb90HfcSQhMZAElpGEc-60">
          <mxGeometry y="1.0001023017902817" width="130.21" height="23.439897698209723" as="geometry" />
        </mxCell>
        <mxCell id="Xwb90HfcSQhMZAElpGEc-62" value="&lt;font style=&quot;font-size: 13px&quot;&gt;Item&lt;/font&gt;" style="text;html=1;points=[];align=left;verticalAlign=top;spacingTop=-4;fontSize=15;fontFamily=Verdana" vertex="1" parent="Xwb90HfcSQhMZAElpGEc-60">
          <mxGeometry x="13.44571500000012" width="69.909749" height="23.4423979539642" as="geometry" />
        </mxCell>
        <mxCell id="Xwb90HfcSQhMZAElpGEc-63" value="" style="shape=image;html=1;verticalAlign=top;verticalLabelPosition=bottom;labelBackgroundColor=#ffffff;imageAspect=0;aspect=fixed;image=https://cdn2.iconfinder.com/data/icons/essential-web-1-1/50/close-cross-error-wrong-reject-128.png;fontSize=13;fontColor=#000000;strokeColor=default;strokeWidth=0;fillColor=#1C1C1C;imageBackground=none;" vertex="1" parent="Xwb90HfcSQhMZAElpGEc-60">
          <mxGeometry x="110" y="8.18" width="9.09" height="9.09" as="geometry" />
        </mxCell>
        <mxCell id="Xwb90HfcSQhMZAElpGEc-41" value="&lt;font style=&quot;font-size: 13px&quot; color=&quot;#808080&quot;&gt;Text&lt;/font&gt;" style="text;html=1;points=[];align=left;verticalAlign=top;spacingTop=-4;fontSize=15;fontFamily=Verdana" vertex="1" parent="7026571954dc6520-1">
          <mxGeometry x="1459.279275362319" y="335.5" width="24.637681159420296" height="30" as="geometry" />
        </mxCell>
      </root>
    </mxGraphModel>
  </diagram>
  <diagram id="QUeqNQQfdwx1J0bMAik7" name="Page-2">
    <mxGraphModel dx="2031" dy="1077" grid="1" gridSize="10" guides="1" tooltips="1" connect="1" arrows="1" fold="1" page="1" pageScale="1" pageWidth="1600" pageHeight="900" math="0" shadow="0">
      <root>
        <mxCell id="9WqE17mekCsM6CgFsIr_-0" />
        <mxCell id="9WqE17mekCsM6CgFsIr_-1" parent="9WqE17mekCsM6CgFsIr_-0" />
        <mxCell id="ResD3VVIYvW-GCMuvG9Z-0" value="" style="strokeWidth=1;shadow=0;dashed=0;align=center;html=1;shape=mxgraph.mockup.containers.browserWindow;rSize=0;strokeColor=#666666;mainText=,;recursiveResize=0;rounded=0;labelBackgroundColor=none;fontFamily=Verdana;fontSize=12" vertex="1" parent="9WqE17mekCsM6CgFsIr_-1">
          <mxGeometry x="30" y="20" width="1510" height="860" as="geometry" />
        </mxCell>
        <mxCell id="ResD3VVIYvW-GCMuvG9Z-1" value="Page 1" style="strokeWidth=1;shadow=0;dashed=0;align=center;html=1;shape=mxgraph.mockup.containers.anchor;fontSize=17;fontColor=#666666;align=left;" vertex="1" parent="ResD3VVIYvW-GCMuvG9Z-0">
          <mxGeometry x="60" y="12" width="110" height="26" as="geometry" />
        </mxCell>
        <mxCell id="ResD3VVIYvW-GCMuvG9Z-2" value="https://www.default.com" style="strokeWidth=1;shadow=0;dashed=0;align=center;html=1;shape=mxgraph.mockup.containers.anchor;rSize=0;fontSize=17;fontColor=#666666;align=left;" vertex="1" parent="ResD3VVIYvW-GCMuvG9Z-0">
          <mxGeometry x="130" y="60" width="250" height="26" as="geometry" />
        </mxCell>
        <mxCell id="ResD3VVIYvW-GCMuvG9Z-3" value="Website Name" style="text;html=1;points=[];align=left;verticalAlign=top;spacingTop=-4;fontSize=30;fontFamily=Verdana" vertex="1" parent="ResD3VVIYvW-GCMuvG9Z-0">
          <mxGeometry x="30" y="140" width="340" height="50" as="geometry" />
        </mxCell>
        <mxCell id="ResD3VVIYvW-GCMuvG9Z-4" value="Section 1" style="text;html=1;points=[];align=left;verticalAlign=top;spacingTop=-4;fontSize=15;fontFamily=Verdana" vertex="1" parent="ResD3VVIYvW-GCMuvG9Z-0">
          <mxGeometry x="540" y="140" width="170" height="30" as="geometry" />
        </mxCell>
        <mxCell id="ResD3VVIYvW-GCMuvG9Z-5" value="Some default text to fill some space, and&amp;nbsp;&lt;span&gt;something more so there is more text&lt;/span&gt;" style="text;html=1;points=[];align=left;verticalAlign=top;spacingTop=-4;fontSize=12;fontFamily=Verdana;whiteSpace=wrap;" vertex="1" parent="ResD3VVIYvW-GCMuvG9Z-0">
          <mxGeometry x="540" y="170" width="240" height="40" as="geometry" />
        </mxCell>
        <mxCell id="ResD3VVIYvW-GCMuvG9Z-6" value="Section 2" style="text;html=1;points=[];align=left;verticalAlign=top;spacingTop=-4;fontSize=15;fontFamily=Verdana" vertex="1" parent="ResD3VVIYvW-GCMuvG9Z-0">
          <mxGeometry x="540" y="230" width="170" height="30" as="geometry" />
        </mxCell>
        <mxCell id="ResD3VVIYvW-GCMuvG9Z-7" value="Some default text to fill some space, and&amp;nbsp;&lt;span&gt;something more so there is more text&lt;/span&gt;" style="text;html=1;points=[];align=left;verticalAlign=top;spacingTop=-4;fontSize=12;fontFamily=Verdana;whiteSpace=wrap;" vertex="1" parent="ResD3VVIYvW-GCMuvG9Z-0">
          <mxGeometry x="540" y="260" width="240" height="40" as="geometry" />
        </mxCell>
        <mxCell id="ResD3VVIYvW-GCMuvG9Z-8" value="Section 1" style="text;html=1;points=[];align=left;verticalAlign=top;spacingTop=-4;fontSize=15;fontFamily=Verdana" vertex="1" parent="ResD3VVIYvW-GCMuvG9Z-0">
          <mxGeometry x="800" y="140" width="170" height="30" as="geometry" />
        </mxCell>
        <mxCell id="ResD3VVIYvW-GCMuvG9Z-9" value="Some default text to fill some space, and&amp;nbsp;&lt;span&gt;something more so there is more text&lt;/span&gt;" style="text;html=1;points=[];align=left;verticalAlign=top;spacingTop=-4;fontSize=12;fontFamily=Verdana;whiteSpace=wrap;" vertex="1" parent="ResD3VVIYvW-GCMuvG9Z-0">
          <mxGeometry x="800" y="170" width="240" height="40" as="geometry" />
        </mxCell>
        <mxCell id="ResD3VVIYvW-GCMuvG9Z-10" value="Search" style="text;html=1;points=[];align=left;verticalAlign=top;spacingTop=-4;fontSize=15;fontFamily=Verdana" vertex="1" parent="ResD3VVIYvW-GCMuvG9Z-0">
          <mxGeometry x="800" y="230" width="170" height="30" as="geometry" />
        </mxCell>
        <mxCell id="ResD3VVIYvW-GCMuvG9Z-11" value="Search" style="strokeWidth=1;shadow=0;dashed=0;align=center;html=1;shape=mxgraph.mockup.forms.searchBox;strokeColor=#999999;mainText=;strokeColor2=#008cff;fontColor=#666666;fontSize=17;align=left;spacingLeft=3;rounded=0;labelBackgroundColor=none;" vertex="1" parent="ResD3VVIYvW-GCMuvG9Z-0">
          <mxGeometry x="800" y="260" width="220" height="30" as="geometry" />
        </mxCell>
        <mxCell id="ResD3VVIYvW-GCMuvG9Z-12" value="" style="verticalLabelPosition=bottom;shadow=0;dashed=0;align=center;html=1;verticalAlign=top;strokeWidth=1;shape=mxgraph.mockup.markup.line;strokeColor=#999999;rounded=0;labelBackgroundColor=none;fillColor=#ffffff;fontFamily=Verdana;fontSize=12;fontColor=#000000;" vertex="1" parent="ResD3VVIYvW-GCMuvG9Z-0">
          <mxGeometry y="310" width="1050" height="20" as="geometry" />
        </mxCell>
        <mxCell id="ResD3VVIYvW-GCMuvG9Z-13" value="Title 1" style="text;html=1;points=[];align=left;verticalAlign=top;spacingTop=-4;fontSize=15;fontFamily=Verdana" vertex="1" parent="ResD3VVIYvW-GCMuvG9Z-0">
          <mxGeometry x="20" y="330" width="170" height="30" as="geometry" />
        </mxCell>
        <mxCell id="ResD3VVIYvW-GCMuvG9Z-14" value="Lorem ipsum dolor sit amet, consectetur adipisicing elit, sed do eiusmod tempor incididunt ut labore et dolore magna aliqua. Ut enim ad minim veniam, quis nostrud exercitation ullamco laboris nisi ut aliquip ex ea commodo consequat. Duis aute irure dolor in reprehenderit in voluptate velit esse cillum dolore eu fugiat nulla pariatur. Excepteur sint occaecat cupidatat non proident, sunt in culpa qui officia deserunt mollit anim id est laborum.&#xa;Sed ut perspiciatis unde omnis iste natus error sit voluptatem accusantium doloremque laudantium, totam rem aperiam, eaque ipsa quae ab illo inventore veritatis et quasi architecto beatae vitae dicta sunt explicabo. Nemo enim ipsam voluptatem quia voluptas sit aspernatur aut odit aut fugit, sed quia consequuntur magni dolores eos qui ratione voluptatem sequi nesciunt. Neque porro quisquam est, qui dolorem ipsum quia dolor sit amet, consectetur, adipisci velit, sed quia non numquam eius modi tempora incidunt ut labore et dolore magnam aliquam quaerat voluptatem. Ut enim ad minima veniam, quis nostrum exercitationem ullam corporis suscipit laboriosam, nisi ut aliquid ex ea commodi consequatur? Quis autem vel eum iure reprehenderit qui in ea voluptate velit esse quam nihil molestiae consequatur, vel illum qui dolorem eum fugiat quo voluptas nulla pariatur?" style="text;spacingTop=-5;whiteSpace=wrap;html=1;align=left;fontSize=12;fontFamily=Helvetica;fillColor=none;strokeColor=none;rounded=0;shadow=1;labelBackgroundColor=none;" vertex="1" parent="ResD3VVIYvW-GCMuvG9Z-0">
          <mxGeometry x="20" y="370" width="570" height="240" as="geometry" />
        </mxCell>
        <mxCell id="ResD3VVIYvW-GCMuvG9Z-15" value="Button 1" style="strokeWidth=1;shadow=0;dashed=0;align=center;html=1;shape=mxgraph.mockup.buttons.button;strokeColor=#666666;mainText=;buttonStyle=round;fontSize=17;fontStyle=0;fillColor=none;whiteSpace=wrap;rounded=0;labelBackgroundColor=none;" vertex="1" parent="ResD3VVIYvW-GCMuvG9Z-0">
          <mxGeometry x="790" y="360" width="190" height="30" as="geometry" />
        </mxCell>
        <mxCell id="ResD3VVIYvW-GCMuvG9Z-16" value="Button 2" style="strokeWidth=1;shadow=0;dashed=0;align=center;html=1;shape=mxgraph.mockup.buttons.button;strokeColor=#666666;mainText=;buttonStyle=round;fontSize=17;fontStyle=0;fillColor=none;whiteSpace=wrap;rounded=0;labelBackgroundColor=none;" vertex="1" parent="ResD3VVIYvW-GCMuvG9Z-0">
          <mxGeometry x="790" y="405" width="190" height="30" as="geometry" />
        </mxCell>
        <mxCell id="ResD3VVIYvW-GCMuvG9Z-17" value="Some default text to fill some space, and&amp;nbsp;&lt;span&gt;something more so there is more text&lt;/span&gt;" style="text;html=1;points=[];align=left;verticalAlign=top;spacingTop=-4;fontSize=12;fontFamily=Verdana;whiteSpace=wrap;" vertex="1" parent="ResD3VVIYvW-GCMuvG9Z-0">
          <mxGeometry x="790" y="450" width="240" height="40" as="geometry" />
        </mxCell>
        <mxCell id="ResD3VVIYvW-GCMuvG9Z-18" value="" style="verticalLabelPosition=bottom;shadow=0;dashed=0;align=center;html=1;verticalAlign=top;strokeWidth=1;shape=mxgraph.mockup.markup.line;strokeColor=#999999;rounded=0;labelBackgroundColor=none;fillColor=#ffffff;fontFamily=Verdana;fontSize=12;fontColor=#000000;" vertex="1" parent="ResD3VVIYvW-GCMuvG9Z-0">
          <mxGeometry y="580" width="1050" height="20" as="geometry" />
        </mxCell>
        <mxCell id="ResD3VVIYvW-GCMuvG9Z-19" value="" style="verticalLabelPosition=bottom;shadow=0;dashed=0;align=center;html=1;verticalAlign=top;strokeWidth=1;shape=mxgraph.mockup.graphics.simpleIcon;strokeColor=#999999;fillColor=#ffffff;rounded=0;labelBackgroundColor=none;fontFamily=Verdana;fontSize=12;fontColor=#000000;" vertex="1" parent="ResD3VVIYvW-GCMuvG9Z-0">
          <mxGeometry x="15" y="610" width="200" height="200" as="geometry" />
        </mxCell>
        <mxCell id="ResD3VVIYvW-GCMuvG9Z-20" value="Title 2" style="text;html=1;points=[];align=left;verticalAlign=top;spacingTop=-4;fontSize=15;fontFamily=Verdana" vertex="1" parent="ResD3VVIYvW-GCMuvG9Z-0">
          <mxGeometry x="280" y="610" width="170" height="30" as="geometry" />
        </mxCell>
        <mxCell id="ResD3VVIYvW-GCMuvG9Z-21" value="Title 3" style="text;html=1;points=[];align=left;verticalAlign=top;spacingTop=-4;fontSize=15;fontFamily=Verdana" vertex="1" parent="ResD3VVIYvW-GCMuvG9Z-0">
          <mxGeometry x="780" y="610" width="170" height="30" as="geometry" />
        </mxCell>
        <mxCell id="ResD3VVIYvW-GCMuvG9Z-22" value="&lt;div style=&quot;text-align: justify&quot;&gt;&lt;span&gt;Some default text to fill some space, and&amp;nbsp;&lt;/span&gt;&lt;span&gt;something more so there is more text&lt;/span&gt;&lt;/div&gt;&lt;div style=&quot;text-align: justify&quot;&gt;&lt;hr id=&quot;null&quot; style=&quot;text-align: justify&quot;&gt;&lt;span&gt;&lt;div style=&quot;text-align: justify&quot;&gt;&lt;span&gt;Some default text to fill some space, and&amp;nbsp;&lt;/span&gt;&lt;span&gt;something more so there is more text&lt;/span&gt;&lt;/div&gt;&lt;/span&gt;&lt;/div&gt;&lt;hr id=&quot;null&quot; style=&quot;text-align: justify&quot;&gt;&lt;span&gt;&lt;div style=&quot;text-align: justify&quot;&gt;&lt;span&gt;Some default text to fill some space, and&amp;nbsp;&lt;/span&gt;&lt;span&gt;something more so there is more text&lt;/span&gt;&lt;/div&gt;&lt;/span&gt;&lt;hr id=&quot;null&quot; style=&quot;text-align: justify&quot;&gt;&lt;span&gt;&lt;div style=&quot;text-align: justify&quot;&gt;&lt;span&gt;Some default text to fill some space, and&amp;nbsp;&lt;/span&gt;&lt;span&gt;something more so there is more text&lt;/span&gt;&lt;/div&gt;&lt;/span&gt;&lt;hr id=&quot;null&quot; style=&quot;text-align: left&quot;&gt;" style="whiteSpace=wrap;html=1;rounded=0;shadow=0;labelBackgroundColor=none;strokeWidth=1;fontFamily=Verdana;fontSize=12;align=center;verticalAlign=top;" vertex="1" parent="ResD3VVIYvW-GCMuvG9Z-0">
          <mxGeometry x="780" y="640" width="260" height="170" as="geometry" />
        </mxCell>
        <mxCell id="ResD3VVIYvW-GCMuvG9Z-23" value="Some default text to fill some space, and&amp;nbsp;&lt;span&gt;something more so there is more text&lt;/span&gt;" style="text;html=1;points=[];align=left;verticalAlign=top;spacingTop=-4;fontSize=12;fontFamily=Verdana;whiteSpace=wrap;" vertex="1" parent="ResD3VVIYvW-GCMuvG9Z-0">
          <mxGeometry x="270" y="650" width="470" height="40" as="geometry" />
        </mxCell>
        <mxCell id="ResD3VVIYvW-GCMuvG9Z-24" value="Lorem ipsum dolor sit amet, consectetur adipisicing elit, sed do eiusmod tempor incididunt ut labore et dolore magna aliqua. Ut enim ad minim veniam, quis nostrud exercitation ullamco laboris nisi ut aliquip ex ea commodo consequat. Duis aute irure dolor in reprehenderit in voluptate velit esse cillum dolore eu fugiat nulla pariatur. Excepteur sint occaecat cupidatat non proident, sunt in culpa qui officia deserunt mollit anim id est laborum.&lt;br&gt;Sed ut perspiciatis unde omnis iste natus error sit voluptatem accusantium doloremque laudantium, totam rem aperiam, eaque ipsa quae ab illo inventore veritatis et quasi architecto beatae vitae dicta sunt explicabo.&amp;nbsp;" style="text;spacingTop=-5;whiteSpace=wrap;html=1;align=left;fontSize=12;fontFamily=Helvetica;fillColor=none;strokeColor=none;rounded=0;shadow=1;labelBackgroundColor=none;" vertex="1" parent="9WqE17mekCsM6CgFsIr_-1">
          <mxGeometry x="300" y="705" width="490" height="125" as="geometry" />
        </mxCell>
      </root>
    </mxGraphModel>
  </diagram>
</mxfile>
